<?xml version="1.0" encoding="UTF-8" standalone="no"?><!DOCTYPE svg PUBLIC "-//W3C//DTD SVG 1.1//EN" "http://www.w3.org/Graphics/SVG/1.1/DTD/svg11.dtd"><svg width="100%" height="100%" viewBox="0 0 271 338" version="1.1" xmlns="http://www.w3.org/2000/svg" xmlns:xlink="http://www.w3.org/1999/xlink" xml:space="preserve" xmlns:serif="http://www.serif.com/" style="fill-rule:evenodd;clip-rule:evenodd;stroke-linecap:round;stroke-linejoin:round;stroke-miterlimit:1.5;"><rect id="Artboard1" x="0" y="0" width="270.102" height="337.286" style="fill:none;"/><path d="M128.912,27.798l0.067,0.253c0.685,2.535 1.823,4.888 2.385,7.491c2.268,10.504 0.474,22.22 -3.585,32.11c-1.842,-0.515 -3.682,-1.076 -5.553,-1.476c5.12,-12.833 5.828,-23.284 1.332,-36.389c1.993,-0.434 3.614,-0.886 5.354,-1.989Z" style="fill:#20467d;fill-rule:nonzero;"/><path d="M156.853,67.984c0.447,-0.453 0.374,-2.182 0.421,-2.816c0.332,-4.553 0.628,-8.982 1.816,-13.42c2.03,-7.585 6.172,-15.742 12.05,-21.074c1.24,1.754 2.455,3.06 4.379,4.083c-7.915,7.062 -11.589,18.184 -12.188,28.541c-0.105,1.817 -0.111,3.632 -0.104,5.45c-2.048,-0.473 -4.282,-0.565 -6.374,-0.764Z" style="fill:#20467d;fill-rule:nonzero;"/><path d="M130.719,298.312c-6.051,7.872 -19.596,20.389 -28.719,21.057c-1.573,0.116 -3.101,-0.245 -4.306,-1.498c-1.023,-1.065 -1.523,-2.491 -1.543,-4.082c-0.085,-6.934 8.531,-16.113 12.184,-21.451c1.639,-2.337 3.151,-4.813 4.847,-7.09c8.245,3.178 16.054,3.512 24.603,3.81c-2.268,3.113 -4.505,6.458 -7.066,9.254Z" style="fill:#20467d;"/><clipPath id="_clip1"><path d="M130.719,298.312c-6.051,7.872 -19.596,20.389 -28.719,21.057c-1.573,0.116 -3.101,-0.245 -4.306,-1.498c-1.023,-1.065 -1.523,-2.491 -1.543,-4.082c-0.085,-6.934 8.531,-16.113 12.184,-21.451c1.639,-2.337 3.151,-4.813 4.847,-7.09c8.245,3.178 16.054,3.512 24.603,3.81c-2.268,3.113 -4.505,6.458 -7.066,9.254Z"/></clipPath><g clip-path="url(#_clip1)"><path d="M117.074,280.073c8.403,3.197 16.255,3.884 24.848,4.576c-2.151,2.61 -4.263,5.425 -6.722,7.743c-7.424,0.035 -15.924,-2.519 -22.707,-6.358c1.551,-1.962 2.97,-4.053 4.581,-5.961Z" style="fill:#242e53;fill-rule:nonzero;"/></g><path d="M77.216,268.189c1.086,-3.387 2.613,-6.547 4.061,-9.729c3.823,9.921 8.969,14.311 15.392,22.683c-0,0 -5.094,8.426 -6.248,10.858c-3.231,5.686 -6.415,17.508 -11.597,20.458c-1.347,0.767 -2.815,1.119 -4.287,0.463c-1.298,-0.579 -2.113,-1.813 -2.645,-3.261c-3.957,-10.762 1.884,-31.062 5.324,-41.472Z" style="fill:#20467d;"/><clipPath id="_clip2"><path d="M77.216,268.189c1.086,-3.387 2.613,-6.547 4.061,-9.729c3.823,9.921 8.969,14.311 15.392,22.683c-0,0 -5.094,8.426 -6.248,10.858c-3.231,5.686 -6.415,17.508 -11.597,20.458c-1.347,0.767 -2.815,1.119 -4.287,0.463c-1.298,-0.579 -2.113,-1.813 -2.645,-3.261c-3.957,-10.762 1.884,-31.062 5.324,-41.472Z"/></clipPath><g clip-path="url(#_clip2)"><path d="M87.406,257.805c3.446,8.421 6.079,15.182 11.929,22.265c-0,0 -2.679,4.151 -3.758,6.231c-5.109,-4.587 -10.009,-13.348 -11.98,-20.182c1.024,-2.892 2.453,-5.594 3.809,-8.314Z" style="fill:#242e53;fill-rule:nonzero;"/></g><path d="M128.472,11.317c4.674,3.003 6.031,9.235 3.029,13.909c-3.002,4.675 -9.235,6.032 -13.909,3.03c-4.674,-3.003 -6.032,-9.235 -3.029,-13.909c3.002,-4.674 9.234,-6.032 13.909,-3.03Z" style="fill:#fbc119;"/><circle cx="177.831" cy="26.826" r="10.066" style="fill:#fbc119;"/><path d="M125.796,15.483c2.375,1.526 3.065,4.693 1.539,7.068c-1.525,2.375 -4.692,3.064 -7.067,1.539c-2.375,-1.526 -3.065,-4.692 -1.54,-7.068c1.526,-2.375 4.693,-3.064 7.068,-1.539Z" style="fill:#f39710;"/><circle cx="177.831" cy="26.826" r="5.013" style="fill:#f39710;"/><path d="M50.556,184.959c3.183,1.682 6.173,3.892 9.356,5.641c8.938,4.913 18.879,7.614 28.724,8.996c4.018,0.564 8.641,-0.327 12.437,0.54c0.13,0.03 0.26,0.064 0.39,0.096c-4.496,3.528 -11.338,8.417 -14.279,13.142c-2.659,3.337 -5.256,6.701 -7.394,10.39c-1.354,2.335 -2.263,5.166 -3.939,7.277c-1.957,0.014 -4.361,1.688 -6.182,2.34c-1.588,0.569 -3.255,1.029 -4.914,1.437c-9.515,2.34 -20.751,2.547 -30.231,-2.565c-6.014,-3.242 -10.627,-8.88 -12.819,-14.911c-0.072,-0.204 -1.515,-4.743 -1.321,-9.166c0.175,-3.964 1.982,-7.86 2.062,-8.023c0.168,-0.343 0.346,-0.681 0.534,-1.014c5.821,-10.515 16.125,-11.726 27.576,-14.18Z" style="fill:#49d7d8;fill-rule:nonzero;"/><path d="M42.282,178.297c-7.626,-6.175 -14.637,-14.499 -18.328,-21.997c-5.251,-10.664 -6.473,-23.201 -2.4,-33.47c3,-7.563 9.189,-13.665 17.311,-16.432c0.119,-0.041 5.56,-1.87 11.649,-1.511c0.434,0.026 2.8,0.231 5.099,0.693c2.386,0.479 4.705,1.217 4.954,1.304c15.787,5.562 26.307,20.195 34.035,35.164c3.756,6.872 6.976,13.849 9.639,20.026c2.006,4.654 3.547,9.458 5.705,14.062c0.826,2.57 1.5,5.192 2.453,7.734c1.015,2.71 2.342,5.368 3.592,8.01c-0.616,0.296 -2.988,2.616 -3.768,3.129c-3.411,1.903 -10.955,5.174 -11.052,5.15c-0.658,0.456 -7.275,0.227 -9.884,-0.369c-0.902,-0.019 -1.791,-0.073 -2.651,-0.194c-9.845,-1.382 -19.786,-4.083 -28.724,-8.996c-3.183,-1.749 -6.173,-3.959 -9.356,-5.641c-2.885,-2.153 -5.655,-4.353 -8.274,-6.662Z" style="fill:#79e6f2;"/><path d="M99.422,202.413c-16.56,-52.128 -63.546,-51.23 -71.856,-52.454c-8.31,-1.225 19.003,41.359 21.995,45.106c10.52,13.176 36.54,11.797 46.691,8.928" style="fill:#242e53;"/><path d="M154.122,187.667c9.094,6.076 18.404,11.248 28.681,13.974c3.482,0.924 7.553,1.173 10.841,2.131c-0.52,-0.008 -1.291,-0.151 -1.774,0.109c1.79,2.573 3.69,5.091 5.297,7.849c3.838,6.586 6.207,14.876 5.494,23.33c-0.018,0.202 -0.691,5.758 -2.454,9.923c-2.062,4.869 -5.27,8.447 -5.417,8.607c-4.351,4.673 -10.112,7.525 -15.719,7.154c-7.291,-0.481 -13.532,-5.712 -17.962,-12.351c-1.394,-2.089 -2.568,-4.371 -3.617,-6.76c-0.888,-2.025 -2.879,-9.211 -4.061,-10.184c-0.457,0.129 -0.256,-0.005 -0.604,0.403c0.289,-1.321 0.371,-2.771 0.585,-4.122c1.087,-6.86 1.609,-13.429 2.002,-20.334c-0.107,-6.653 -0.668,-13.163 -1.292,-19.729Z" style="fill:#49d7d8;fill-rule:nonzero;"/><path d="M161.11,156.772c3.834,-2.863 7.393,-6.327 11.16,-9.338c12.004,-9.596 28.502,-21.361 42.537,-23.768c1.052,-0.181 2.105,-0.304 3.16,-0.369c1.055,-0.064 2.108,-0.07 3.157,-0.017c1.05,0.053 2.093,0.165 3.129,0.335c1.036,0.169 2.06,0.397 3.074,0.683c0.103,0.029 5.509,2 9.321,5.576c3.982,3.736 6.377,9.086 6.429,9.204c3.555,8.021 4.103,17.867 1.876,26.949c-3.024,12.331 -10.57,23.24 -19.609,29.704c-8.677,6.205 -22.038,9.713 -31.7,8.041c-3.288,-0.958 -7.359,-1.207 -10.841,-2.131c-10.277,-2.726 -19.587,-7.898 -28.681,-13.974c-0.363,-1.334 -3.204,-11.951 -4.397,-15.877c-0.309,-1.401 -0.463,-2.986 -0.898,-4.333c2.207,-1.635 4.472,-3.235 6.57,-5.09c1.969,-1.741 3.808,-3.743 5.713,-5.595Z" style="fill:#79e6f2;fill-rule:nonzero;"/><path d="M173.274,190.643c52.585,-15.045 77.831,24.592 83.449,30.837c5.617,6.245 -44.966,7.052 -49.743,6.633c-16.796,-1.474 -30.043,-23.912 -33.269,-33.954" style="fill:#242e53;"/><path d="M79.636,173.119c2.44,-2.687 5.132,-11.279 1.768,-14.657c-3.45,-5.244 -6.646,-10.413 -8.705,-16.39c-4.548,-13.198 -3.272,-28.227 2.798,-40.736c6.408,-13.205 17.141,-22.991 30.03,-29.731c3.135,-1.64 6.4,-3.206 9.744,-4.371c1.79,-0.674 3.641,-1.197 5.469,-1.759c13.844,-4.035 28.595,-3.637 42.495,-0.131c2.018,0.586 4.197,1.092 6.121,1.938c16.479,5.912 32.131,17.769 39.725,33.867c5.951,12.618 7.032,27.536 2.299,40.742c-1.456,4.061 -3.537,7.899 -5.879,11.512c-0.943,1.455 -6.288,8.032 -8.107,9.727c-1.939,1.807 -4.09,3.418 -6.176,5.051c0.653,1.085 -3.191,6.971 -2.663,8.115c1.825,3.17 5.324,17.329 5.991,20.882c0.207,1.198 0.353,2.461 0.643,3.633c0.289,5.654 0.517,11.255 0.293,16.933c-0.728,5.844 -1.566,11.389 -2.973,17.127c-0.277,1.129 -0.43,2.357 -0.779,3.454c-0.436,1.818 -0.936,3.616 -1.501,5.396c-0.566,1.78 -1.195,3.536 -1.886,5.268c-0.692,1.732 -1.445,3.435 -2.259,5.108c-0.815,1.674 -1.687,3.313 -2.619,4.918c-7.423,12.057 -17.338,21.469 -30.114,26.437c-4.807,1.869 -14.075,3.934 -19.412,3.762c-8.767,-0.283 -28.336,-4.706 -36.459,-7.938c-0,0 -1.52,-0.347 -3.474,-1.468c-4.909,-2.814 -13.364,-8.418 -13.277,-10.306c-2.228,-2.951 -4.49,-5.847 -6.473,-8.999c-5.233,-8.312 -8.853,-18.519 -9.369,-28.68c-0.174,-4.41 -0.282,-8.788 0.09,-13.209c0.247,-2.925 0.845,-5.863 0.957,-8.783c0.876,-2.489 0.995,-5.387 1.57,-7.977c0.908,-4.09 2.247,-8.032 3.64,-11.971c1.322,-5.306 5.689,-12.045 8.492,-16.764Z" style="fill:#fbc119;"/><clipPath id="_clip3"><path d="M79.636,173.119c2.44,-2.687 5.132,-11.279 1.768,-14.657c-3.45,-5.244 -6.646,-10.413 -8.705,-16.39c-4.548,-13.198 -3.272,-28.227 2.798,-40.736c6.408,-13.205 17.141,-22.991 30.03,-29.731c3.135,-1.64 6.4,-3.206 9.744,-4.371c1.79,-0.674 3.641,-1.197 5.469,-1.759c13.844,-4.035 28.595,-3.637 42.495,-0.131c2.018,0.586 4.197,1.092 6.121,1.938c16.479,5.912 32.131,17.769 39.725,33.867c5.951,12.618 7.032,27.536 2.299,40.742c-1.456,4.061 -3.537,7.899 -5.879,11.512c-0.943,1.455 -6.288,8.032 -8.107,9.727c-1.939,1.807 -4.09,3.418 -6.176,5.051c0.653,1.085 -3.191,6.971 -2.663,8.115c1.825,3.17 5.324,17.329 5.991,20.882c0.207,1.198 0.353,2.461 0.643,3.633c0.289,5.654 0.517,11.255 0.293,16.933c-0.728,5.844 -1.566,11.389 -2.973,17.127c-0.277,1.129 -0.43,2.357 -0.779,3.454c-0.436,1.818 -0.936,3.616 -1.501,5.396c-0.566,1.78 -1.195,3.536 -1.886,5.268c-0.692,1.732 -1.445,3.435 -2.259,5.108c-0.815,1.674 -1.687,3.313 -2.619,4.918c-7.423,12.057 -17.338,21.469 -30.114,26.437c-4.807,1.869 -14.075,3.934 -19.412,3.762c-8.767,-0.283 -28.336,-4.706 -36.459,-7.938c-0,0 -1.52,-0.347 -3.474,-1.468c-4.909,-2.814 -13.364,-8.418 -13.277,-10.306c-2.228,-2.951 -4.49,-5.847 -6.473,-8.999c-5.233,-8.312 -8.853,-18.519 -9.369,-28.68c-0.174,-4.41 -0.282,-8.788 0.09,-13.209c0.247,-2.925 0.845,-5.863 0.957,-8.783c0.876,-2.489 0.995,-5.387 1.57,-7.977c0.908,-4.09 2.247,-8.032 3.64,-11.971c1.322,-5.306 5.689,-12.045 8.492,-16.764Z"/></clipPath><g clip-path="url(#_clip3)"><path d="M191.218,168.181c0.653,1.085 1.459,2.208 1.988,3.352c-0.056,0.036 -0.112,0.071 -0.167,0.108c-1.421,0.956 -2.619,2.368 -3.854,3.555c-3.166,3.043 -6.769,5.337 -10.97,6.67c-3.212,1.019 -6.602,1.701 -9.971,1.848c-7.869,0.344 -15.811,-1.068 -23.706,-1.064c-3.616,0.015 -7.227,0.154 -10.834,0.417c-7.729,0.624 -16.08,1.893 -23.774,0.52c-5.808,-1.037 -11.262,-3.521 -15.563,-7.611c-1.167,-1.11 -2.229,-2.778 -3.517,-3.684c0.234,-0.529 -12.411,-3.554 -12.137,-4.071c0.015,-0.028 -0.935,-0.482 -2.055,-1.425c-2.784,-2.343 -7.532,-6.726 -7.813,-7.942c-0.602,-2.606 7.93,0.25 13.095,4.152c2.592,1.958 12.242,6.485 12.946,6.936c0.705,0.452 5.81,3.189 9.138,4.296c3.381,1.124 6.798,1.655 7.215,1.712c6.292,0.815 12.479,0.11 18.76,-0.293c4.949,-0.352 9.904,-0.516 14.865,-0.494c3.608,-0.013 7.21,0.014 10.809,0.274c6.144,0.445 12.267,1.404 18.405,0.366c6.312,-1.068 12.087,-3.724 17.14,-7.622Z" style="fill:#f39710;fill-rule:nonzero;"/><path d="M77.548,221.228c3.413,1.99 6.848,3.779 10.547,5.209c25.869,9.999 67.135,10.438 93.828,3.802c5.253,-1.307 18.955,-4.791 22.838,-8.264c-0.038,1.868 -0.149,3.732 -0.334,5.592c-0.185,1.86 -0.443,3.71 -0.774,5.551c-0.331,1.84 -0.735,3.665 -1.211,5.475c-0.475,1.809 -1.022,3.598 -1.639,5.366c-5.876,2.246 -11.778,4.477 -17.892,6.03c-25.667,6.517 -58.17,6.631 -83.764,-0.289c-4.026,-1.088 -8.025,-2.365 -11.849,-4.022c-1.808,-0.783 -5.608,-2.723 -5.689,-2.748c-4.526,-2.223 -17.458,-15.524 -17.458,-15.524c0,-0 -1.886,-21.45 -0.32,-19.92c3.751,3.665 8.435,9.44 13.717,13.742Z" style="fill:#20467d;fill-rule:nonzero;"/><path d="M198.205,181.186c0.494,1.125 0.939,2.328 1.514,3.409c1.608,5.46 3.142,10.88 4.218,16.473c-2.724,1.29 -5.492,2.478 -8.303,3.565c-2.811,1.087 -5.659,2.07 -8.542,2.949c-26.542,7.895 -64.163,7.954 -90.556,-0.291c-2.723,-0.848 -5.398,-1.829 -8.023,-2.942c-2.626,-1.114 -5.369,-2.074 -7.692,-3.723c-2.979,-2.114 -6.855,-5.66 -10.182,-8.962c-1.548,-1.537 -0.757,-3.991 -0.515,-4.836c0.634,-2.215 6.512,-13.629 6.512,-13.629c-0,0 5.41,7.124 9.214,9.228c4.68,2.59 13.802,5.219 18.87,6.313c24.795,5.352 52.291,5.867 76.837,-0.902c5.737,-1.582 11.613,-3.413 16.648,-6.652Z" style="fill:#20467d;"/></g><path d="M149.395,140.058c0.632,0.285 4.429,5.907 9.41,6.182c5.397,0.297 6.462,-1.162 9.746,-6.815" style="fill:none;stroke:#242e53;stroke-width:3px;"/><path d="M138.18,134.976c-0.38,2.578 -3.316,5.185 -5.271,6.74c-3.06,2.433 -6.483,3.702 -10.442,3.256c-4.415,-0.498 -8.255,-2.969 -10.987,-6.356c-5.215,-6.461 -6.659,-15.234 -5.7,-23.257c0.854,-7.148 4.03,-14.421 9.904,-18.938c3.237,-2.49 7.274,-3.895 11.409,-3.357c4.367,0.568 8.099,3.146 10.71,6.581c2.35,3.09 5.156,8.928 4.558,12.878c1.109,8.16 -0.125,15.276 -4.181,22.453Z" style="fill:#fefefe;fill-rule:nonzero;"/><path d="M122.479,104.091c1.513,-1.354 3.15,-2.612 5.106,-3.271c2.406,-0.811 4.912,-0.661 7.189,0.473c4.422,2.204 6.188,6.859 7.587,11.23c1.109,8.16 -0.125,15.276 -4.181,22.453c-2.144,2.471 -4.529,4.636 -7.837,5.392c-0.083,0.019 -2.091,0.429 -4.012,0.107c-1.888,-0.317 -3.688,-1.366 -3.759,-1.411c-3.87,-2.433 -6.095,-6.923 -7.073,-11.206c-1.604,-7.024 -0.268,-13.94 3.631,-19.965c-0.108,0.933 -0.243,1.922 -0.199,2.862c0.09,1.881 0.833,3.538 2.27,4.796c1.407,1.233 3.15,1.931 5.046,1.761c0.05,-0.005 1.607,-0.186 2.607,-0.725c1.248,-0.673 1.99,-1.737 2.028,-1.786c1.173,-1.478 1.615,-3.326 1.36,-5.177c-0.24,-1.737 -1.087,-3.46 -2.547,-4.51c-2.163,-1.555 -4.726,-1.407 -7.216,-1.023Z" style="fill:#242e53;fill-rule:nonzero;"/><path d="M173.125,113.525c1.019,-3.683 2.888,-8.355 5.246,-11.021c2.827,-3.195 6.964,-5.6 11.317,-5.89c4.122,-0.275 8.173,1.491 11.217,4.153c5.668,4.956 8.238,12.737 8.625,20.004c0.428,8.009 -2.073,16.526 -7.628,22.499c-2.902,3.121 -6.788,5.357 -11.16,5.498c-4.397,0.142 -8.507,-1.795 -11.647,-4.747c-1.499,-1.408 -3.546,-3.581 -3.818,-5.687c-0.957,-1.848 -1.991,-3.709 -2.676,-5.674c-2.171,-6.223 -1.185,-12.959 0.524,-19.135Z" style="fill:#fefefe;fill-rule:nonzero;"/><clipPath id="_clip4"><path d="M173.125,113.525c1.019,-3.683 2.888,-8.355 5.246,-11.021c2.827,-3.195 6.964,-5.6 11.317,-5.89c4.122,-0.275 8.173,1.491 11.217,4.153c5.668,4.956 8.238,12.737 8.625,20.004c0.428,8.009 -2.073,16.526 -7.628,22.499c-2.902,3.121 -6.788,5.357 -11.16,5.498c-4.397,0.142 -8.507,-1.795 -11.647,-4.747c-1.499,-1.408 -3.546,-3.581 -3.818,-5.687c-0.957,-1.848 -1.991,-3.709 -2.676,-5.674c-2.171,-6.223 -1.185,-12.959 0.524,-19.135Z" clip-rule="nonzero"/></clipPath><g clip-path="url(#_clip4)"><path d="M198.458,114.534c-1.315,-4.269 -3.199,-8.27 -7.391,-10.452c-2.441,-1.271 -5.259,-1.595 -7.907,-0.788c-2.294,0.699 -4.103,2.043 -5.852,3.623c2.283,-0.591 4.472,-1.063 6.649,0.216c1.49,0.877 2.491,2.41 2.899,4.051c0.014,0.055 0.387,1.398 0.181,2.677c-0.217,1.348 -1.015,2.635 -1.047,2.685c-0.868,1.398 -2.225,2.479 -3.869,2.829c-1.719,0.366 -3.685,-0.124 -5.125,-1.096c-1.557,-1.051 -2.432,-2.759 -2.752,-4.557c-0.132,-0.738 -0.146,-1.494 -0.142,-2.241c-3.493,6.227 -4.475,12.85 -2.457,19.757c1.192,4.082 3.682,8.376 7.569,10.486c2.441,1.325 5.375,1.537 8.028,0.767c2.333,-0.677 4.076,-2.095 5.869,-3.654c1.196,-1.703 2.471,-3.408 3.414,-5.264c2.986,-5.874 2.797,-12.69 1.933,-19.039Z" style="fill:#242e53;fill-rule:nonzero;"/></g></svg>