<?xml version="1.0" encoding="UTF-8" standalone="no"?><!DOCTYPE svg PUBLIC "-//W3C//DTD SVG 1.1//EN" "http://www.w3.org/Graphics/SVG/1.1/DTD/svg11.dtd"><svg width="100%" height="100%" viewBox="0 0 59 59" version="1.1" xmlns="http://www.w3.org/2000/svg" xmlns:xlink="http://www.w3.org/1999/xlink" xml:space="preserve" xmlns:serif="http://www.serif.com/" style="fill-rule:evenodd;clip-rule:evenodd;stroke-linejoin:round;stroke-miterlimit:2;"><rect id="Artboard1" x="0" y="0" width="58.408" height="58.408" style="fill:none;"/><path d="M38.813,16.2c0.045,0.019 0.091,0.038 0.136,0.058c5.761,2.067 11.233,6.212 13.888,11.84c2.081,4.411 2.459,9.627 0.804,14.244c-0.509,1.42 -1.237,2.761 -2.056,4.025c-0.329,0.508 -0.708,1.001 -1.016,1.521c-0.607,0.622 -1.182,1.287 -1.818,1.879c-0.678,0.632 -1.43,1.195 -2.159,1.766c-2.065,1.618 -7.512,3.92 -15.566,3.967c-9.187,0.053 -15.711,-1.428 -18.836,-3.847c-1.173,-0.908 -2.749,-2.134 -3.768,-3.518c-1.136,-1.541 -2.324,-3.64 -3.044,-5.73c-1.59,-4.614 -1.144,-9.868 0.979,-14.241c2.24,-4.617 5.992,-8.038 10.498,-10.395c0.907,-0.474 1.844,-0.93 2.802,-1.304c-0.973,-2.371 -2.453,-4.289 -4.767,-6.123c-0.524,0.379 -1.168,0.603 -1.864,0.603c-1.759,0 -3.187,-1.428 -3.187,-3.187c-0,-1.759 1.428,-3.187 3.187,-3.187c1.759,0 3.187,1.428 3.187,3.187c-0,0.409 -0.077,0.799 -0.218,1.158c0,-0 1.351,1.016 1.946,1.614c1.477,1.482 2.623,3.348 3.428,5.341c0.269,-0.083 0.538,-0.163 0.805,-0.245c4.84,-1.411 9.775,-1.271 14.635,-0.046c0.062,0.018 0.125,0.036 0.188,0.054c0.118,-0.302 0.246,-0.601 0.389,-0.898c1.069,-2.221 2.818,-4.496 4.937,-5.813c-0.141,-0.361 -0.219,-0.754 -0.219,-1.165c-0,-1.759 1.428,-3.187 3.186,-3.187c1.759,0 3.187,1.428 3.187,3.187c0,1.759 -1.428,3.187 -3.187,3.187c-0.761,0 -1.869,-0.588 -1.793,-0.526c-2.157,1.297 -3.708,3.444 -4.684,5.781Zm-25.072,13.369c0.893,-0.203 1.818,-0.321 2.64,0.197c0.555,0.35 0.904,0.963 1.033,1.596c0.138,0.674 0.023,1.365 -0.366,1.937c-0.012,0.019 -0.255,0.429 -0.691,0.708c-0.349,0.223 -0.909,0.328 -0.927,0.331c-0.683,0.11 -1.332,-0.104 -1.872,-0.523c-0.551,-0.427 -0.861,-1.018 -0.939,-1.707c-0.04,-0.345 -0.015,-0.712 0.002,-1.058c-1.266,2.313 -1.581,4.89 -0.828,7.433c0.459,1.551 1.375,3.147 2.837,3.946c0.027,0.015 0.705,0.356 1.397,0.426c0.704,0.071 1.421,-0.13 1.451,-0.139c1.18,-0.36 1.991,-1.216 2.708,-2.177c1.294,-2.741 1.568,-5.389 0.966,-8.362c-0.614,-1.573 -1.367,-3.241 -3.024,-3.942c-0.852,-0.361 -1.764,-0.354 -2.616,0.004c-0.693,0.291 -1.255,0.794 -1.771,1.33Zm24.146,2.485c-0.468,2.313 -0.704,4.815 0.235,7.05c0.296,0.706 0.716,1.365 1.108,2.021c0.612,0.618 1.209,1.183 2.038,1.489c0.942,0.349 2.011,0.344 2.928,-0.083c1.46,-0.679 2.467,-2.197 2.999,-3.669c0.9,-2.49 0.706,-4.95 -0.407,-7.327c-0.017,0.275 -0.041,0.553 -0.107,0.821c-0.16,0.653 -0.518,1.259 -1.109,1.607c-0.545,0.322 -1.269,0.454 -1.883,0.277c-0.588,-0.17 -1.053,-0.601 -1.333,-1.137c-0.011,-0.019 -0.268,-0.512 -0.314,-1.014c-0.044,-0.475 0.125,-0.96 0.131,-0.98c0.188,-0.593 0.588,-1.132 1.15,-1.418c0.82,-0.416 1.601,-0.188 2.414,0.086c-0.595,-0.624 -1.218,-1.164 -2.032,-1.478c-0.94,-0.362 -1.969,-0.313 -2.885,0.094c-1.572,0.698 -2.353,2.123 -2.933,3.661Zm-5.074,8.6c-0.639,0.292 -1.563,1.918 -3.193,1.933c-0.777,0.008 -1.68,-0.279 -2.24,-0.834c-0.395,-0.392 -0.617,-0.988 -1.253,-1.009c-0.163,-0.005 -0.323,0.028 -0.445,0.146c-0.2,0.191 -0.237,0.505 -0.219,0.766c0.029,0.427 0.268,0.741 0.565,1.034c1.179,1.027 2.364,1.592 3.957,1.479c1.216,-0.086 2.469,-0.644 3.262,-1.589c0.275,-0.328 0.553,-0.756 0.516,-1.205c-0.019,-0.232 -0.123,-0.405 -0.311,-0.541c-0.164,-0.118 -0.438,-0.272 -0.639,-0.18Z" style="fill:#fff;"/></svg>